<?xml version="1.0" encoding="iso-8859-1"?>
<!-- Generator: Adobe Illustrator 19.0.0, SVG Export Plug-In . SVG Version: 6.00 Build 0)  -->
<svg version="1.1" id="Capa_1" xmlns="http://www.w3.org/2000/svg" xmlns:xlink="http://www.w3.org/1999/xlink" x="0px" y="0px"
	 viewBox="0 0 512 512" style="enable-background:new 0 0 512 512;" xml:space="preserve">
<g>
	<g transform="translate(1 1)">
		<path style="fill:#4E342E;" d="M331.8,400.067v93.867c0,4.713-3.82,8.533-8.533,8.533H186.733c-4.713,0-8.533-3.821-8.533-8.533
			v-93.867H331.8z"/>
		<path style="fill:#795548;" d="M306.2,400.067v93.867c0,4.713-3.82,8.533-8.533,8.533H186.733c-4.713,0-8.533-3.821-8.533-8.533
			v-93.867H306.2z"/>
		<path style="fill:#C52828;" d="M442.733,388.632V408.6c-0.028,9.414-7.653,17.039-17.067,17.067H84.333
			c-9.414-0.028-17.039-7.653-17.067-17.067v-19.968c0-9.054,3.591-17.738,9.984-24.149l32.683-32.683v-17.067h290.133V331.8
			l32.683,32.683C439.143,370.894,442.733,379.578,442.733,388.632z"/>
		<path style="fill:#F44335;" d="M417.133,388.632V408.6c-0.028,9.414-7.653,17.039-17.067,17.067H84.333
			c-9.414-0.028-17.039-7.653-17.067-17.067v-19.968c0-9.054,3.591-17.738,9.984-24.149l32.683-32.683v-17.067h264.533V331.8
			l32.683,32.683C413.543,370.894,417.133,379.578,417.133,388.632z"/>
		<path style="fill:#C52828;" d="M442.733,388.632V408.6c-0.028,9.414-7.653,17.039-17.067,17.067H84.333
			c-9.414-0.028-17.039-7.653-17.067-17.067v-19.968c0.013-4.886,1.06-9.713,3.072-14.165h369.323
			C441.673,378.919,442.72,383.746,442.733,388.632z"/>
		<path style="fill:#F44335;" d="M417.133,388.632V408.6c-0.028,9.414-7.653,17.039-17.067,17.067H84.333
			c-9.414-0.028-17.039-7.653-17.067-17.067v-19.968c0.013-4.886,1.06-9.713,3.072-14.165h343.723
			C416.073,378.919,417.12,383.746,417.133,388.632z"/>
		<g>
			<path style="fill:#4E342E;" d="M135.533,229.4v59.733H16.067c-4.713,0-8.533-3.821-8.533-8.533v-42.667
				c0-4.713,3.821-8.533,8.533-8.533H135.533z"/>
			<path style="fill:#4E342E;" d="M383,229.4h110.933c4.713,0,8.533,3.821,8.533,8.533V280.6c0,4.713-3.821,8.533-8.533,8.533H383
				V229.4z"/>
		</g>
		<g>
			<path style="fill:#795548;" d="M82.883,229.4v59.733H16.067c-4.713,0-8.533-3.821-8.533-8.533v-42.667
				c0-4.713,3.821-8.533,8.533-8.533H82.883z"/>
			<path style="fill:#795548;" d="M357.4,229.4h110.933c4.713,0,8.533,3.821,8.533,8.533V280.6c0,4.713-3.821,8.533-8.533,8.533
				H357.4V229.4z"/>
		</g>
		<polygon style="fill:#1566C0;" points="493.933,144.067 485.4,229.4 442.733,229.4 434.2,144.067 		"/>
		<polygon style="fill:#2296F3;" points="468.333,144.067 459.8,229.4 442.733,229.4 434.2,144.067 		"/>
		<path style="fill:#D1D4D1;" d="M502.467,152.6h-76.8c-4.713,0-8.533-3.821-8.533-8.533c0-4.713,3.82-8.533,8.533-8.533h76.8
			c4.713,0,8.533,3.821,8.533,8.533C511,148.779,507.18,152.6,502.467,152.6z"/>
		<path style="fill:#C52828;" d="M400.067,75.8v256H109.933v-256c0-37.703,30.564-68.267,68.267-68.267h153.6
			C369.503,7.533,400.067,38.097,400.067,75.8z"/>
		<path style="fill:#F44335;" d="M374.467,75.8v256H109.933v-256c0-37.703,30.564-68.267,68.267-68.267h128
			C343.903,7.533,374.467,38.097,374.467,75.8z"/>
		<path style="fill:#C52828;" d="M390.168,40.387l-65.621,94.379c-4.811-4.968-11.432-7.77-18.347-7.765H203.8
			c-6.915-0.005-13.536,2.798-18.347,7.765L180.077,127l-60.245-86.613c12.359-20.418,34.501-32.88,58.368-32.853h153.6
			C355.667,7.506,377.809,19.969,390.168,40.387z"/>
		<path style="fill:#F44335;" d="M364.568,40.387L304.323,127l-5.376,7.765c-4.811-4.968-11.431-7.77-18.347-7.765H180.077
			l-60.245-86.613c12.359-20.418,34.501-32.88,58.368-32.853h128C330.067,7.506,352.209,19.969,364.568,40.387z"/>
		<rect x="178.2" y="237.933" style="fill:#C52828;" width="153.6" height="93.867"/>
		<rect x="178.2" y="237.933" style="fill:#F44335;" width="128" height="93.867"/>
		<path style="fill:#AD1457;" d="M331.8,152.6v85.333H178.2l0-85.333c-0.035-6.67,2.573-13.083,7.253-17.835
			c4.811-4.968,11.431-7.77,18.347-7.765h102.4C320.339,127,331.8,138.462,331.8,152.6z"/>
		<path style="fill:#E91E63;" d="M306.2,152.6v85.333h-128l0-85.333c-0.035-6.67,2.573-13.083,7.253-17.835
			c4.811-4.968,11.431-7.77,18.347-7.765h76.8C294.738,127,306.2,138.462,306.2,152.6z"/>
	</g>
	<path d="M503.467,153.6c4.713,0,8.533-3.821,8.533-8.533c0-4.713-3.82-8.533-8.533-8.533h-34.133v-27.981l19.763-6.588
		c2.896-0.963,5.058-3.399,5.672-6.389c0.614-2.99-0.414-6.08-2.697-8.107c-2.282-2.027-5.473-2.681-8.369-1.718l-25.6,8.533
		c-3.492,1.163-5.845,4.434-5.837,8.115v34.133h-25.6c-4.713,0-8.533,3.821-8.533,8.533c0,4.713,3.82,8.533,8.533,8.533h0.853
		l6.827,68.267H409.6V76.8c-0.006-13.88-3.803-27.494-10.982-39.373c-0.176-0.34-0.376-0.668-0.597-0.981
		C384.06,13.821,359.385,0.033,332.8,0H179.2c-26.585,0.033-51.26,13.821-65.22,36.446c-0.221,0.313-0.421,0.641-0.597,0.981
		C106.203,49.306,102.406,62.92,102.4,76.8v145.067H17.067C7.641,221.867,0,229.508,0,238.933V281.6
		c0,9.426,7.641,17.067,17.067,17.067H102.4v30.601l-30.165,30.174c-3.46,3.518-6.284,7.609-8.346,12.092
		c-0.171,0.274-0.325,0.559-0.461,0.853c-2.424,5.418-3.682,11.285-3.695,17.22V409.6c0,14.138,11.462,25.6,25.6,25.6h85.333v59.733
		c0,9.426,7.641,17.067,17.067,17.067h136.533c9.426,0,17.067-7.641,17.067-17.067V435.2h85.333c14.138,0,25.6-11.462,25.6-25.6
		v-19.994c-0.015-5.93-1.274-11.79-3.695-17.203c-0.137-0.295-0.294-0.58-0.469-0.853c-2.056-4.481-4.878-8.57-8.337-12.083
		L409.6,329.267v-30.601h85.333c9.426,0,17.067-7.641,17.067-17.067v-42.667c-0.034-9.069-7.155-16.528-16.213-16.981l6.827-68.352
		H503.467z M256,324.267h-68.267v-76.8h25.6c4.713,0,8.533-3.821,8.533-8.533c0-4.713-3.821-8.533-8.533-8.533h-25.6v-76.8
		c0-9.426,7.641-17.067,17.067-17.067h102.4c9.426,0,17.067,7.641,17.067,17.067v76.8h-76.8c-4.713,0-8.533,3.821-8.533,8.533
		c0,4.713,3.821,8.533,8.533,8.533h76.8v76.8H256z M119.467,324.267V76.8c0.001-6.206,0.974-12.374,2.884-18.278l53.581,77.065
		c-3.421,5.387-5.247,11.632-5.265,18.014v170.667H119.467z M341.333,238.933V153.6c-0.018-6.381-1.844-12.627-5.265-18.014
		l53.581-77.065c1.91,5.905,2.883,12.072,2.884,18.278v247.467h-51.2V238.933z M179.2,17.067h153.6
		c18.946,0.021,36.756,9.041,47.983,24.303l-57.301,82.415c-4.975-2.792-10.577-4.278-16.282-4.318H204.8
		c-5.705,0.04-11.307,1.526-16.282,4.318L131.217,41.37C142.443,26.107,160.253,17.086,179.2,17.067z M17.067,281.6v-42.667H102.4
		V281.6H17.067z M324.267,494.933H187.733V435.2h136.533V494.933z M435.2,409.6c0,4.713-3.82,8.533-8.533,8.533H85.333
		c-4.713,0-8.533-3.821-8.533-8.533v-19.994c0.017-1.888,0.246-3.769,0.683-5.606h67.584c4.713,0,8.533-3.821,8.533-8.533
		c0-4.713-3.821-8.533-8.533-8.533H88.866l25.6-25.6h283.068l25.6,25.6H179.2c-4.713,0-8.533,3.821-8.533,8.533
		c0,4.713,3.821,8.533,8.533,8.533h255.317c0.437,1.837,0.666,3.718,0.683,5.606V409.6z M409.6,281.6v-42.667h85.333V281.6H409.6z
		 M478.72,221.867h-27.221l-6.827-68.267h40.875L478.72,221.867z"/>
</g>
<g>
</g>
<g>
</g>
<g>
</g>
<g>
</g>
<g>
</g>
<g>
</g>
<g>
</g>
<g>
</g>
<g>
</g>
<g>
</g>
<g>
</g>
<g>
</g>
<g>
</g>
<g>
</g>
<g>
</g>
</svg>
