<svg height="511pt" viewBox="1 0 511.999 511" width="511pt" xmlns="http://www.w3.org/2000/svg"><path d="m125.011719 10.5h376.988281v348.917969h-376.988281zm0 0" fill="#d98325"/><path d="m118.011719 45.511719h348.964843v278.894531h-348.964843zm0 0" fill="#1c237a"/><path d="m149.984375 55.507812h-.128906c-5.523438 0-10-4.476562-10-10 0-5.519531 4.476562-10 10-10h.128906c5.523437 0 10 4.480469 10 10 0 5.523438-4.476563 10-10 10zm0 0"/><path d="m218.011719 439.046875-12.378907-5.34375-54.605468-.007813-12.394532 5.351563c-7.339843 3.167969-12.121093 11.785156-12.121093 20.023437v43.414063h103.617187v-43.414063c0-8.238281-4.78125-16.855468-12.117187-20.023437zm0 0" fill="#fc525a"/><path d="m415.964844 439.046875-39.753906-15c-3.710938-1.398437-6.128907-4.683594-6.128907-8.324219v-22.902344h-4.464843v22.902344c0 3.640625-2.414063 6.925782-6.128907 8.324219l-39.753906 15c-8.398437 3.167969-13.871094 11.785156-13.871094 20.023437v43.414063h123.972657v-43.414063c0-8.238281-5.472657-16.855468-13.871094-20.023437zm0 0" fill="#0092e0"/><path d="m314.160156 387.234375h58.589844v36.8125h-58.589844zm0 0" fill="#ffb35e"/><path d="m131.328125 356.792969c0-41.257813 20.605469-76.34375 49.347656-89.292969-7.667969-3.457031-15.910156-5.339844-24.5-5.339844-40.785156 0-73.847656 42.367188-73.847656 94.632813s33.0625 106.695312 73.847656 106.695312c8.589844 0 16.832031-2.421875 24.5-6.722656-28.742187-16.113281-49.347656-58.710937-49.347656-99.972656zm0 0" fill="#fff"/><path d="m230.023438 356.792969c0-41.257813-20.605469-76.34375-49.347657-89.292969-28.742187 12.949219-49.351562 48.035156-49.351562 89.292969 0 41.261719 20.609375 83.859375 49.351562 99.972656 28.742188-16.113281 49.347657-58.710937 49.347657-99.972656zm0 0" fill="#f29c0b"/><path d="m320.089844 297.238281c0-36.832031 9.894531-56.582031 25.78125-67.078125-42.648438.070313-77.113282 7-77.113282 73.417969 0 45.824219 34.8125 89.246094 77.753907 89.246094 9.84375 0 19.253906-2.292969 27.917969-6.359375-31.726563-14.351563-54.339844-51.007813-54.339844-89.226563zm0 0" fill="#fff"/><path d="m356.289062 230.667969c13.042969.195312 36.664063-1.164063 55.253907-11.722657-2.691407-.214843-5.414063-.339843-8.175781-.339843-22.296876 0-42.550782 1.679687-57.496094 11.554687h.640625c3.3125 0 6.570312.183594 9.777343.507813zm0 0" fill="#591700"/><path d="m411.3125 351.382812.003906.003907c19.15625-30.152344 21.65625-80.136719 11.285156-132.339844-3.238281.125-6.191406.144531-8.765624.105469-.761719-.078125-1.527344-.144532-2.292969-.207032-18.589844 10.558594-42.210938 11.917969-55.253907 11.722657-3.207031-.324219-6.460937-.507813-9.777343-.507813-.214844 0-.425781 0-.640625 0-15.886719 10.496094-25.78125 30.246094-25.78125 67.078125 0 38.21875 22.613281 74.875 54.339844 89.226563 15.152343-7.113282 28.023437-19.679688 36.882812-35.082032zm0 0" fill="#591700"/><path d="m365.636719 160.402344c0-13.707032 8.648437-25.394532 20.78125-29.910156-3.460938-1.289063-7.210938-1.996094-11.125-1.996094-17.621094 0-31.90625 14.285156-31.90625 31.90625s14.285156 31.90625 31.90625 31.90625c3.914062 0 7.664062-.707032 11.125-1.996094-12.132813-4.515625-20.78125-16.203125-20.78125-29.910156zm0 0" fill="#fff"/><path d="m407.203125 160.402344c0-13.707032-8.648437-25.394532-20.78125-29.910156-12.136719 4.515624-20.78125 16.203124-20.78125 29.910156 0 13.707031 8.644531 25.394531 20.78125 29.910156 12.132813-4.515625 20.78125-16.203125 20.78125-29.910156zm0 0" fill="#fab617"/><path d="m310.695312 107.242188c0 8.914062-7.226562 16.140624-16.140624 16.140624-8.914063 0-16.140626-7.226562-16.140626-16.140624 0-8.914063 7.226563-16.140626 16.140626-16.140626 8.914062 0 16.140624 7.226563 16.140624 16.140626zm0 0" fill="#0092e0"/><path d="m244.421875 161.601562c0 41.914063-33.980469 75.890626-75.894531 75.890626-41.914063 0-75.894532-33.976563-75.894532-75.890626 0-41.914062 33.980469-75.894531 75.894532-75.894531 41.914062 0 75.894531 33.980469 75.894531 75.894531zm0 0" fill="#41c0f0"/><path d="m138.882812 161.601562c0-33.851562 22.164063-62.511718 52.769532-72.292968-7.292969-2.332032-15.058594-3.601563-23.125-3.601563-41.914063 0-75.894532 33.980469-75.894532 75.894531 0 41.914063 33.980469 75.890626 75.894532 75.890626 8.066406 0 15.832031-1.265626 23.125-3.597657-30.605469-9.78125-52.769532-38.445312-52.769532-72.292969zm0 0" fill="#fff"/><path d="m244.421875 161.601562c0-33.851562-22.164063-62.511718-52.769531-72.292968-30.605469 9.78125-52.769532 38.445312-52.769532 72.292968 0 33.847657 22.164063 62.507813 52.769532 72.289063 30.601562-9.777344 52.769531-38.441406 52.769531-72.289063zm0 0" fill="#41c0f0"/><path d="m352.710938 193.027344c-2.574219 0-5.144532-.984375-7.101563-2.957032-3.890625-3.917968-3.894531-10.28125.027344-14.171874 3.921875-3.886719 10.222656-3.890626 14.113281.027343l.058594.0625c3.890625 3.921875 3.863281 10.253907-.058594 14.140625-1.949219 1.933594-4.496094 2.898438-7.039062 2.898438zm0 0"/><path d="m376.828125 202.308594c-5.300781 0-9.71875-4.160156-9.980469-9.511719-.269531-5.515625 3.980469-10.207031 9.5-10.476563 5.4375-.265624 10.558594-2.535156 14.414063-6.394531 8.546875-8.546875 8.546875-22.457031 0-31.007812-4.144531-4.140625-9.648438-6.421875-15.507813-6.421875-5.855468 0-11.363281 2.28125-15.503906 6.421875-3.734375 3.734375-5.996094 8.6875-6.363281 13.949219-.386719 5.507812-5.148438 9.65625-10.675781 9.273437-5.507813-.386719-9.660157-5.164063-9.273438-10.675781.707031-10.066406 5.027344-19.546875 12.171875-26.691406 16.347656-16.347657 42.945313-16.347657 59.292969 0 16.347656 16.347656 16.347656 42.949218 0 59.296874-7.371094 7.371094-17.164063 11.714844-27.574219 12.226563-.171875.007813-.335937.011719-.5.011719zm0 0"/><path d="m441.316406 90.496094c0 7.734375-6.265625 14-14 14-7.730468 0-14-6.265625-14-14 0-7.730469 6.269532-14 14-14 7.734375 0 14 6.269531 14 14zm0 0" fill="#fc525a"/><path d="m427.316406 114.496094c-6.410156 0-12.4375-2.496094-16.96875-7.03125-4.535156-4.53125-7.03125-10.558594-7.03125-16.96875s2.5-12.4375 7.03125-16.96875 10.558594-7.027344 16.96875-7.027344 12.4375 2.496094 16.96875 7.027344c4.535156 4.53125 7.03125 10.558594 7.03125 16.96875 0 13.234375-10.765625 24-24 24zm0-27.996094c-1.441406 0-2.390625.730469-2.828125 1.167969s-1.167969 1.386719-1.167969 2.828125.730469 2.390625 1.167969 2.828125 1.386719 1.171875 2.828125 1.171875c2.207032 0 4-1.792969 4-4 0-1.441406-.734375-2.390625-1.171875-2.828125s-1.386719-1.167969-2.828125-1.167969zm0 0"/><path d="m294.554688 133.382812c-14.414063 0-26.144532-11.726562-26.144532-26.140624 0-14.414063 11.730469-26.140626 26.144532-26.140626 14.410156 0 26.136718 11.726563 26.140624 26.140626 0 14.414062-11.726562 26.140624-26.140624 26.140624zm0-32.28125c-3.386719 0-6.140626 2.753907-6.140626 6.140626 0 3.386718 2.753907 6.140624 6.140626 6.140624 3.386718 0 6.140624-2.753906 6.140624-6.140624 0-3.386719-2.753906-6.140626-6.140624-6.140626zm0 0"/><path d="m257.023438 164.050781c-.835938-1.15625-1.722657-2.324219-2.628907-3.488281-.5625-46.882812-38.851562-84.855469-85.867187-84.855469-18.375 0-35.410156 5.820313-49.390625 15.6875-1.605469-3.457031-5.121094-5.832031-9.21875-5.789062-20.171875.300781-34.835938 7.554687-41.289063 20.425781-7.136718 14.238281-3.085937 33.101562 11.402344 53.109375.84375 1.167969 1.722656 2.335937 2.628906 3.503906.566406 46.878907 38.855469 84.847657 85.867188 84.847657 15.253906 0 29.578125-4.011719 42.007812-11.015626 1.46875.207032 2.925782.382813 4.367188.53125 3.921875.40625 7.566406.59375 10.957031.59375 26.523437 0 37.425781-11.429687 41.699219-18.832031 4.816406-8.347656 9.859375-26.554687-10.535156-54.71875zm-88.496094-68.34375c36.332031 0 65.894531 29.558594 65.894531 65.894531 0 22.257813-11.105469 41.957032-28.050781 53.890626-36.4375-7.191407-79.023438-31.78125-103.460938-59.746094 2.972656-33.601563 31.257813-60.039063 65.617188-60.039063zm-82.019532 19.285157c2.328126-4.644532 8.097657-7.695313 16.515626-8.859376-6.558594 7.730469-11.78125 16.628907-15.296876 26.339844-2.84375-7.105468-3.347656-13.226562-1.21875-17.480468zm82.019532 112.5c-26.644532 0-49.625-15.902344-60-38.707032 9.5 7.839844 20.167968 15.242188 31.667968 21.878906 11.519532 6.652344 23.28125 12.195313 34.832032 16.503907-2.136719.210937-4.304688.324219-6.5.324219zm81.710937-18.71875c-2.488281 4.308593-8.203125 7.140624-16.179687 8.265624 6.550781-7.734374 11.769531-16.628906 15.277344-26.339843 2.984374 7.4375 3.382812 13.777343.902343 18.074219zm0 0"/><path d="m502 .5h-492c-5.523438 0-10 4.476562-10 10v348.917969c0 5.523437 4.476562 10 10 10h62.933594c1.921875 21.046875 8.550781 42.039062 18.933594 59.789062l-1.53125.660157c-10.691407 4.617187-18.15625 16.625-18.15625 29.203124v43.414063c0 5.523437 4.476562 10 10 10h147.949218c5.523438 0 10-4.476563 10-10v-43.414063c0-12.578124-7.464844-24.585937-18.15625-29.203124l-1.496094-.644532c10.390626-17.753906 17.019532-38.753906 18.941407-59.804687h42.515625c.652344.816406 1.296875 1.640625 1.972656 2.433593 7.804688 9.199219 16.734375 16.488282 26.382812 21.683594v21.285156l-39.417968 14.871094c-11.972656 4.519532-20.339844 16.601563-20.339844 29.378906v43.414063c0 5.523437 4.480469 10 10 10h169.304688c5.523437 0 10-4.476563 10-10v-43.414063c0-12.777343-8.363282-24.859374-20.339844-29.378906l-39.414063-14.875v-19.917968c11.652344-5.714844 22.265625-14.367188 31.066407-25.480469h90.851562c5.523438 0 10-4.476563 10-10v-348.917969c0-5.523438-4.476562-10-10-10zm-303.921875 426.65625c-.3125.359375-.59375.75-.855469 1.15625-11.453125 15.375-26.0625 25.175781-41.046875 25.175781-14.988281 0-29.601562-9.804687-41.058593-25.1875-.261719-.410156-.542969-.800781-.851563-1.160156-13.160156-18.242187-21.9375-43.910156-21.9375-70.347656 0-46.664063 28.640625-84.632813 63.847656-84.632813s63.847657 37.96875 63.847657 84.632813c0 26.445312-8.78125 52.121093-21.945313 70.363281zm22.054687 65.328125h-9.984374v-14.269531c0-5.523438-4.476563-10-10-10-5.523438 0-10 4.476562-10 10v14.269531h-59.5v-14.269531c0-5.523438-4.476563-10-10-10-5.523438 0-10 4.476562-10 10v14.269531h-18.472657v-33.414063c0-4.527343 2.730469-9.394531 6.085938-10.84375l5.332031-2.300781c15.085938 17.871094 33.410156 27.5625 52.582031 27.5625 19.167969 0 37.488281-9.6875 52.574219-27.546875l5.296875 2.285156c3.351563 1.449219 6.082031 6.316407 6.082031 10.84375v33.414063zm19.664063-143.066406c-.277344-5.035157-.839844-10-1.679687-14.871094h25.433593c1.582031 5.089844 3.542969 10.066406 5.855469 14.871094zm143.703125 88.070312 28.9375 10.914063c4.628906 1.75 7.398438 6.796875 7.398438 10.667968v33.417969h-12.667969v-14.273437c0-5.523438-4.476563-10-10-10-5.523438 0-10 4.476562-10 10v14.273437h-81.3125v-14.273437c0-5.523438-4.476563-10-10-10-5.523438 0-10 4.476562-10 10v14.273437h-15.324219v-33.417969c0-3.871093 2.769531-8.917968 7.402344-10.667968l28.933594-10.914063zm-23.324219-20h-29.984375c.058594-.582031.09375-1.171875.09375-1.765625v-14.695312c5.308594 1.183594 10.734375 1.792968 16.226563 1.792968 4.578125 0 9.113281-.425781 13.570312-1.253906v14.15625c0 .59375.039063 1.183594.09375 1.765625zm42.699219-71.46875c-.078125.125-.15625.25-.230469.375-13.125 22.8125-34.109375 36.425781-56.132812 36.425781-36.09375 0-67.757813-37.027343-67.757813-79.246093 0-58.867188 28.082032-63.414063 67.757813-63.414063 2.816406 0 5.769531.152344 8.765625.457032.285156.027343.574218.042968.859375.050781 14.132812.203125 38.078125-1.300781 58.128906-11.820313 8.542969 49.101563 4.484375 92.191406-11.390625 117.171875zm89.125 3.398438h-68.070312c2.40625-4.679688 4.519531-9.71875 6.339843-15.082031h36.707031c5.523438 0 10-4.476563 10-10v-278.824219c0-5.523438-4.476562-10-10-10h-282.632812c-5.523438 0-10 4.476562-10 10 0 5.519531 4.476562 10 10 10h272.632812v258.824219h-21.542968c5.476562-29.296876 4.074218-65.261719-4.5-104.320313-.757813-3.453125-3.28125-6.25-6.640625-7.355469-3.355469-1.105468-7.050781-.355468-9.710938 1.972656-16.945312 14.828126-45.710937 16.183594-57.734375 16.042969-3.515625-.34375-6.988281-.515625-10.335937-.515625-42.457031 0-87.757813 6.445313-87.757813 83.414063 0 3.660156.230469 7.320312.628906 10.972656h-26.449218c-3.984375-11.308594-9.574219-21.746094-16.65625-30.820313-15.882813-20.355468-37.226563-31.566406-60.101563-31.566406s-44.21875 11.210938-60.101562 31.566406c-7.117188 9.117188-12.722657 19.613282-16.714844 30.984376-.855469-.238282-1.75-.375-2.679687-.375h-21.65625v-258.824219h60.480468c5.523438 0 10-4.480469 10-10 0-5.523438-4.476562-10-10-10h-70.480468c-5.523438 0-10 4.476562-10 10v278.824219c0 5.523437 4.476562 10 10 10h29.25c-.859376 4.9375-1.433594 9.972656-1.71875 15.082031h-52.554688v-328.917969h472zm0 0"/></svg>