<svg height="472pt" viewBox="-3 0 471 472" width="472pt" xmlns="http://www.w3.org/2000/svg"><path d="m40.5 24h384v232h-384zm0 0" fill="#d6d7d8"/><path d="m88.5 280h288c8.800781 0 16 7.199219 16 16v24h-320v-24c0-8.800781 7.199219-16 16-16zm0 0" fill="#e2c8ac"/><path d="m216.5 320h32v112h-32zm0 0" fill="#ceb195"/><path d="m32.5 0h400c8.800781 0 16 7.199219 16 16v16h-432v-16c0-8.800781 7.199219-16 16-16zm0 0" fill="#3f3f3f"/><path d="m432.5 296v48c0 8.800781-7.199219 16-16 16h-48c-8.800781 0-16 7.199219-16 16s7.199219 16 16 16h64c17.601562 0 32-14.398438 32-32v-64c0-8.800781-7.199219-16-16-16s-16 7.199219-16 16zm0 0" fill="#4a4a56"/><path d="m416.5 392h16v80h-16zm0 0" fill="#2b2b2b"/><path d="m464.5 472h-16v-8c0-4.800781-3.199219-8-8-8h-32c-4.800781 0-8 3.199219-8 8v8h-16v-8c0-13.601562 10.398438-24 24-24h32c13.601562 0 24 10.398438 24 24zm0 0" fill="#2b2b2b"/><path d="m32.5 296v48c0 8.800781 7.199219 16 16 16h48c8.800781 0 16 7.199219 16 16s-7.199219 16-16 16h-64c-17.601562 0-32-14.398438-32-32v-64c0-8.800781 7.199219-16 16-16s16 7.199219 16 16zm0 0" fill="#4a4a56"/><path d="m32.5 392h16v80h-16zm0 0" fill="#2b2b2b"/><path d="m80.5 472h-16v-8c0-4.800781-3.199219-8-8-8h-32c-4.800781 0-8 3.199219-8 8v8h-16v-8c0-13.601562 10.398438-24 24-24h32c13.601562 0 24 10.398438 24 24zm0 0" fill="#2b2b2b"/><path d="m176.5 464v-16c0-8.800781 7.199219-16 16-16h80c8.800781 0 16 7.199219 16 16v16zm0 0" fill="#e2c8ac"/><g fill="#a0a0a0"><path d="m240.5 80h152v16h-152zm0 0"/><path d="m240.5 120h152v16h-152zm0 0"/><path d="m240.5 160h152v16h-152zm0 0"/><path d="m240.5 200h152v16h-152zm0 0"/></g><path d="m208.5 144c0 35.199219-28.800781 64-64 64s-64-28.800781-64-64 28.800781-64 64-64v64zm0 0" fill="#f4c167"/><path d="m176.5 72v40h40c0-22.398438-17.601562-40-40-40zm0 0" fill="#e8821c"/></svg>