<svg id="Capa_1" enable-background="new 0 0 512 512" height="512" viewBox="0 0 512 512" width="512" xmlns="http://www.w3.org/2000/svg"><g><path d="m481 225v212c0 8.28-6.72 15-15 15h-420c-8.28 0-15-6.72-15-15v-212c0-124.37 100.65-225 225-225 124.37 0 225 100.65 225 225z" fill="#fabe2c"/><path d="m481 225v212c0 8.28-6.72 15-15 15h-210v-452c124.37 0 225 100.65 225 225z" fill="#ff9100"/><path d="m451 254.07v31.26l-16 105.67-51.58 31h-254.84l-45.58-33.5-22-103.17v-31.26l105-202.19v-.01c2.15-1.12 4.32-2.2 6.51-3.23l83.49-.01h83.49c2.19 1.04 4.36 2.12 6.51 3.24v.01z" fill="#f0f7ff"/><path d="m451 254.07v31.26l-16 105.67-51.58 31h-127.42v-373.37h83.49c2.19 1.04 4.36 2.12 6.51 3.24v.01z" fill="#dfe7f4"/><g><g><g><path d="m271 285v152c0 8.28-6.72 15-15 15s-15-6.72-15-15v-152c0-8.28 6.72-15 15-15s15 6.72 15 15z" fill="#fabe2c"/></g></g></g><path d="m271 285v152c0 8.28-6.72 15-15 15v-182c8.28 0 15 6.72 15 15z" fill="#ff9100"/><g><path d="m451 225v29.07c-59.19-7.38-105-57.88-105-119.07v-83.12c17.46 9.09 33.61 20.89 47.92 35.2 36.81 36.81 57.08 85.79 57.08 137.92z" fill="#e30a6c"/><path d="m128.58 422-67.58 15v-151.67z" fill="#ff435b"/><path d="m451 285.33v151.67l-67.58-15z" fill="#e30a6c"/><path d="m339.49 48.63c-13.32 33.05-45.68 56.37-83.49 56.37s-70.17-23.32-83.49-56.36c25.75-12.2 54.12-18.64 83.49-18.64s57.74 6.43 83.49 18.63z" fill="#ff435b"/><path d="m339.49 48.63c-13.32 33.05-45.68 56.37-83.49 56.37v-75c29.37 0 57.74 6.43 83.49 18.63z" fill="#e30a6c"/><path d="m166 51.88v83.12c0 61.19-45.81 111.69-105 119.07v-29.07c0-52.13 20.27-101.12 57.08-137.92 14.31-14.31 30.46-26.11 47.92-35.2z" fill="#ff435b"/></g><g><path d="m497 422h-482c-8.28 0-15 6.72-15 15v60c0 8.28 6.72 15 15 15h482c8.28 0 15-6.72 15-15v-60c0-8.28-6.72-15-15-15z" fill="#613d5c"/></g><path d="m512 437v60c0 8.28-6.72 15-15 15h-241v-90h241c8.28 0 15 6.72 15 15z" fill="#4b2746"/><g><g><g><g><path d="m256 180c-24.81 0-45 20.19-45 45v30c0 24.81 20.19 45 45 45s45-20.19 45-45v-30c0-24.81-20.19-45-45-45z" fill="#fabe2c"/></g></g></g></g><path d="m301 225v30c0 24.81-20.19 45-45 45v-120c24.81 0 45 20.19 45 45z" fill="#ff9100"/></g></svg>