<svg id="_x33_0" enable-background="new 0 0 64 64" height="512" viewBox="0 0 64 64" width="512" xmlns="http://www.w3.org/2000/svg"><g><g><g><path d="m24 41v6.82c-12.69-.58-22-2.52-22-4.82 0-1.58 4.42-3 11.32-3.91l2.37 3.16c.82 1.1 2.12 1.75 3.5 1.75 1.16 0 2.27-.46 3.09-1.28z" fill="#ccd1d9"/></g><g><path d="m50.68 39.09c6.9.91 11.32 2.33 11.32 3.91 0 2.3-9.31 4.24-22 4.82v-6.82l1.72 1.72c.82.82 1.93 1.28 3.09 1.28 1.38 0 2.68-.65 3.5-1.75z" fill="#ccd1d9"/></g><g><path d="m40 47.82c-2.55.12-5.23.18-8 .18s-5.45-.06-8-.18c-12.69-.58-22-2.52-22-4.82v14c0 .54.51 1.06 1.46 1.54l7.97-7.97c.37-.37.86-.57 1.37-.57.74 0 1.41.41 1.74 1.07l2.13 4.26 2.68-2.68c.41-.41.98-.65 1.58-.65.67 0 1.32.31 1.74.84l7.32 9.14c.66.02 1.33.02 2.01.02 1.01 0 2.01-.01 3-.03 2.07-.03 4.07-.1 6-.19 12.17-.65 21-2.54 21-4.78v-14c0 2.3-9.31 4.24-22 4.82z" fill="#e6e9ed"/></g><g><circle cx="41" cy="55" fill="#b4dd7f" r="3"/></g><g><circle cx="35" cy="55" fill="#b4dd7f" r="3"/></g><g><path d="m22.67 52.84 7.32 9.14c-3.62-.03-7.06-.18-10.21-.41l-3.11-6.24 2.68-2.68c.41-.41.98-.65 1.58-.65.67 0 1.32.31 1.74.84z" fill="#b4dd7f"/></g><g><path d="m16.67 55.33 3.11 6.24c-7.71-.58-13.69-1.68-16.32-3.03l7.97-7.97c.37-.37.86-.57 1.37-.57.74 0 1.41.41 1.74 1.07z" fill="#a0d468"/></g><g><path d="m24 41-1.72 1.72c-.82.82-1.93 1.28-3.09 1.28-1.38 0-2.68-.65-3.5-1.75l-2.37-3.16-5.32-7.09c1.11 0 2-.9 2-2v-4l8.2 9.84.05-.04c2.89-2.32 6.3-3.91 9.92-4.65.49 1.65 2.02 2.85 3.83 2.85 1.1 0 2.1-.45 2.83-1.17.46-.47.81-1.04 1-1.68 3.62.74 7.03 2.33 9.92 4.65l.05.04 8.2-9.84v4c0 1.1.89 2 2 2l-5.32 7.09-2.37 3.16c-.82 1.1-2.12 1.75-3.5 1.75-1.16 0-2.27-.46-3.09-1.28l-1.72-1.72v6.82c-2.55.12-5.23.18-8 .18s-5.45-.06-8-.18z" fill="#fcd770"/></g><g><path d="m12 16c0 1.38-.71 2.58-1.77 3.3-.14.1-.23.25-.23.41v6.29 4c0 1.1-.89 2-2 2-.11 0-.22-.01-.34-.03-.98-.16-1.66-1.08-1.66-2.08v-1.89-2-6.29c0-.16-.09-.31-.23-.41-1.31-.88-2.08-2.52-1.65-4.3.35-1.42 1.5-2.56 2.92-2.89 2.63-.61 4.96 1.37 4.96 3.89z" fill="#aab2bd"/></g><g><path d="m58 28v1.89c0 1-.68 1.92-1.66 2.08-.12.02-.23.03-.34.03-1.11 0-2-.9-2-2v-4-6.29c0-.16-.09-.31-.23-.41-1.06-.72-1.77-1.92-1.77-3.3 0-2.52 2.33-4.5 4.96-3.89 1.42.33 2.57 1.47 2.92 2.89.43 1.78-.34 3.42-1.65 4.3-.14.1-.23.25-.23.41v6.29z" fill="#aab2bd"/></g><g><path d="m28.79 8.16-.01.01-4.78 3.83h-2l-.46-.23c-.94-.47-1.54-1.44-1.54-2.49 0-.66.24-1.28.63-1.77.4-.48.96-.83 1.61-.96l.49-.1-.47-.94c-.17-.33-.26-.71-.26-1.08 0-.67.27-1.28.71-1.72s1.05-.71 1.72-.71h7.57c5.52 0 10 4.48 10 10h-5.53-.47l-2.05-.26c-2.28-.28-4.17-1.67-5.16-3.58z" fill="#656d78"/></g><g><path d="m22 14v4h-2c-.55 0-1.05-.22-1.41-.59-.37-.36-.59-.86-.59-1.41 0-1.1.9-2 2-2z" fill="#aab2bd"/></g><g><path d="m44 14c1.1 0 2 .9 2 2 0 .55-.22 1.05-.59 1.41-.36.37-.86.59-1.41.59h-2v-4z" fill="#aab2bd"/></g><g><path d="m6 26v2c0 1.1-.9 2-2 2-.55 0-1.05-.22-1.41-.59-.37-.36-.59-.86-.59-1.41v-2c0-1.1.9-2 2-2 .55 0 1.05.22 1.41.59.37.36.59.86.59 1.41z" fill="#f0d0b4"/></g><g><path d="m61.41 29.41c-.36.37-.86.59-1.41.59-1.1 0-2-.9-2-2v-2c0-.55.22-1.05.59-1.41.36-.37.86-.59 1.41-.59 1.1 0 2 .9 2 2v2c0 .55-.22 1.05-.59 1.41z" fill="#f0d0b4"/></g><g><path d="m36 28v2c0 .4-.06.79-.17 1.15-.19.64-.54 1.21-1 1.68-.73.72-1.73 1.17-2.83 1.17-1.81 0-3.34-1.2-3.83-2.85-.11-.37-.17-.75-.17-1.15v-2l.01-.04c.17.03.34.04.52.04h6.94c.18 0 .35-.01.52-.04z" fill="#f0d0b4"/></g><g><path d="m40 20-.56 4.5c-.23 1.82-1.66 3.23-3.45 3.46-.17.03-.34.04-.52.04h-6.94c-.18 0-.35-.01-.52-.04-1.79-.23-3.22-1.64-3.45-3.46l-.56-4.5h3.53 8.94z" fill="#f0d0b4"/></g><g><path d="m28.79 8.16c.99 1.91 2.88 3.3 5.16 3.58l2.05.26h-8.47-3.53l4.78-3.83z" fill="#f0d0b4"/></g><g><path d="m26 16c0 1.54.58 2.94 1.53 4h-3.53-1c-.55 0-1-.45-1-1v-1-4-2h2 3.53c-.95 1.06-1.53 2.46-1.53 4z" fill="#69d6f4"/></g><g><path d="m42 18v1c0 .55-.45 1-1 1h-1-3.53c.95-1.06 1.53-2.46 1.53-4s-.58-2.94-1.53-4h5.53v2z" fill="#69d6f4"/></g><g><path d="m36.47 12c.95 1.06 1.53 2.46 1.53 4s-.58 2.94-1.53 4h-8.94c-.95-1.06-1.53-2.46-1.53-4s.58-2.94 1.53-4h8.47z" fill="#4fc1e9"/></g></g><g><path d="m29 15h6v2h-6z"/><path d="m29 23h6v2h-6z"/><path d="m47 51h12v2h-12z"/><path d="m47 55h8v2h-8z"/><path d="m58.864 30.773c.351.145.734.227 1.136.227 1.654 0 3-1.346 3-3v-2c0-1.654-1.346-3-3-3-.352 0-.686.072-1 .184v-3.204c1.612-1.209 2.336-3.229 1.849-5.222-.437-1.783-1.874-3.205-3.662-3.621-1.523-.356-3.091-.011-4.294.945-1.204.956-1.893 2.384-1.893 3.918 0 1.566.742 3.035 2 3.979v5.658l-7.358 8.83c-2.589-1.913-5.556-3.306-8.681-4.074.01-.132.039-.258.039-.393v-1.259c1.803-.585 3.184-2.154 3.43-4.121l.453-3.62h.117c1.103 0 2-.897 2-2h1c1.654 0 3-1.346 3-3s-1.346-3-3-3h-1v-1c0-6.065-4.935-11-11-11h-7.573c-1.89 0-3.427 1.537-3.427 3.427 0 .474.115.944.306 1.38-1.37.584-2.306 1.939-2.306 3.473 0 1.407.767 2.67 2 3.33v.39h-1c-1.654 0-3 1.346-3 3s1.346 3 3 3h1c0 1.103.897 2 2 2h.117l.453 3.62c.245 1.967 1.627 3.536 3.43 4.121v1.259c0 .135.029.261.04.393-3.109.764-6.065 2.149-8.68 4.075l-7.36-8.831v-5.658c1.257-.943 2-2.412 2-3.979 0-1.534-.689-2.962-1.893-3.917-1.203-.957-2.77-1.3-4.294-.945-1.788.416-3.226 1.838-3.662 3.621-.487 1.992.238 4.013 1.849 5.221v3.204c-.314-.112-.648-.184-1-.184-1.654 0-3 1.346-3 3v2c0 1.654 1.346 3 3 3 .402 0 .785-.082 1.136-.226.319 1.105 1.207 1.976 2.327 2.176l4.041 5.388c-10.496 1.605-10.504 3.807-10.504 4.662v14c0 5.932 29.734 6 31 6s31-.068 31-6v-14c0-.855-.008-3.057-10.504-4.662l4.041-5.388c1.12-.201 2.009-1.072 2.327-2.177zm1.136-5.773c.552 0 1 .448 1 1v2c0 .552-.448 1-1 1s-1-.448-1-1v-2c0-.552.448-1 1-1zm-5.864-11.352c.54-.428 1.182-.649 1.858-.649.243 0 .49.028.739.086 1.044.243 1.917 1.107 2.172 2.148.373 1.523-.395 2.673-1.238 3.241-.417.283-.667.747-.667 1.24v10.179c0 .538-.362 1.018-.825 1.093-.302.051-.594-.029-.822-.223-.224-.191-.353-.469-.353-.763v-10.286c0-.496-.251-.96-.67-1.241-.833-.562-1.33-1.486-1.33-2.473 0-.921.414-1.777 1.136-2.352zm-25.136 15.352h6v1c0 1.654-1.346 3-3 3s-3-1.346-3-3zm9.321-10c.442-.93.679-1.952.679-3s-.237-2.07-.678-3h2.678v6zm-10.295 0c-.653-.864-1.026-1.907-1.026-3s.373-2.136 1.026-3h7.948c.653.864 1.026 1.907 1.026 3s-.373 2.136-1.026 3zm1.806-8h-2.981l1.691-1.353c.374.501.809.954 1.29 1.353zm14.168 4c.552 0 1 .448 1 1s-.448 1-1 1h-1v-2zm-21.567-7.467 2.764-.553-.393-1.96-1.524.304-.13-.258c-.098-.198-.15-.419-.15-.639 0-.787.64-1.427 1.427-1.427h7.573c4.625 0 8.442 3.507 8.941 8h-4.88l-1.983-.248c-2.895-.361-5.078-2.834-5.078-5.752h-2c0 1.011.198 1.982.554 2.875l-3.906 3.125h-1.411l-.252-.126c-.608-.304-.985-.914-.985-1.594 0-.846.603-1.581 1.433-1.747zm-2.433 9.467c-.552 0-1-.448-1-1s.448-1 1-1h1v2zm3-4h2.678c-.441.93-.678 1.952-.678 3s.237 2.07.679 3h-2.679zm2.555 11.372-.422-3.372h13.734l-.422 3.372c-.187 1.498-1.466 2.628-2.976 2.628h-6.938c-1.51 0-2.789-1.13-2.976-2.628zm-6.324 14.269 1.537-1.281-1.128-1.354c2.376-1.737 5.095-2.998 7.955-3.69.839 1.587 2.488 2.684 4.405 2.684s3.566-1.097 4.404-2.684c2.846.688 5.555 1.941 7.954 3.69l-1.127 1.353 1.537 1.281 8.232-9.877v1.237c0 .882.386 1.715 1.058 2.286.098.084.206.152.312.221l-6.857 9.143c-.634.845-1.644 1.35-2.7 1.35-.889 0-1.759-.36-2.387-.988l-1.426-1.426v-3.586h-2v9.863c-2.184.086-4.509.137-7 .137s-4.816-.051-7-.137v-9.863h-2v3.586l-1.426 1.426c-.628.628-1.498.988-2.386.988-1.057 0-2.066-.505-2.7-1.35l-6.858-9.143c.107-.069.214-.138.312-.221.672-.571 1.058-1.404 1.058-2.286v-1.237zm-15.231-9.641c-.552 0-1-.448-1-1v-2c0-.552.448-1 1-1s1 .448 1 1v2c0 .552-.448 1-1 1zm3-9.286c0-.493-.25-.957-.669-1.24-.842-.567-1.609-1.717-1.236-3.24.255-1.041 1.128-1.905 2.172-2.148.249-.058.496-.086.739-.086.677 0 1.318.222 1.858.649.722.574 1.136 1.43 1.136 2.351 0 .987-.497 1.911-1.329 2.472-.42.282-.671.746-.671 1.242v10.286c0 .294-.129.572-.353.763-.229.192-.522.272-.822.223-.463-.076-.825-.555-.825-1.093zm5.871 20.447 2.017 2.689c1.01 1.347 2.617 2.15 4.3 2.15 1.436 0 2.786-.559 3.801-1.574l.011-.012v3.359c-12.626-.657-19.555-2.598-20-3.732v-.015c.179-.454 2.303-1.807 9.871-2.865zm5.226 20.269c-6.146-.543-10.507-1.395-12.91-2.202l6.953-6.953c.428-.429 1.23-.298 1.501.244zm-.214-4.899 2.169-2.169c.499-.501 1.396-.451 1.837.103l5.989 7.486c-2.694-.06-5.18-.176-7.453-.335zm17.117 1.469c-1.103 0-2-.897-2-2s.897-2 2-2 2 .897 2 2-.897 2-2 2zm1 1.858c.79-.205 1.479-.643 2-1.24.521.597 1.21 1.035 2 1.24v1.96c-1.281.059-2.608.105-4 .135zm5-1.858c-1.103 0-2-.897-2-2s.897-2 2-2 2 .897 2 2-.897 2-2 2zm1 3.716v-1.858c1.721-.447 3-1.999 3-3.858 0-2.206-1.794-4-4-4-1.201 0-2.266.542-3 1.382-.734-.84-1.799-1.382-3-1.382-2.206 0-4 1.794-4 4 0 1.859 1.279 3.411 3 3.858v2.124c-.663.007-1.314.018-2 .018-.525 0-1.019-.009-1.53-.013l-7.018-8.772c-.617-.773-1.538-1.215-2.526-1.215-.864 0-1.677.336-2.287.947l-1.698 1.698-1.511-3.021c-.501-1.002-1.508-1.624-2.627-1.624-.773 0-1.53.313-2.077.86l-7.459 7.459c-.133-.111-.231-.219-.267-.319v-11.606c6.688 3.557 27.934 3.606 29 3.606s22.314-.049 29.001-3.606l.004 11.572c-.411 1.158-6.994 3.042-19.005 3.75zm19.005-17.75c-.422 1.19-7.356 3.146-20.005 3.806v-3.358l.012.012c1.014 1.015 2.365 1.574 3.801 1.574 1.683 0 3.29-.804 4.3-2.15l2.017-2.689c7.61 1.064 9.717 2.426 9.875 2.805z"/></g></g></svg>