<svg height="504pt" viewBox="0 -20 504 504" width="504pt" xmlns="http://www.w3.org/2000/svg"><path d="m488 176.015625h-472c-8.832031 0-16 7.167969-16 16 0 6.832031 4.3125 12.625 10.34375 14.921875-6.0625 64.816406-10.34375 209.078125-10.34375 209.078125 0 8.871094 7.121094 16 16 16h472c8.878906 0 16-7.128906 16-16v-224c0-8.871094-7.121094-16-16-16zm-236 152c-39.761719 0-72-10.71875-72-24s32.238281-24 72-24 72 10.71875 72 24-32.238281 24-72 24zm0 0" fill="#da4453"/><path d="m16 208.015625h472c8.878906 0 16 7.128906 16 16v224c0 8.871094-7.121094 16-16 16h-472c-8.878906 0-16-7.128906-16-16v-256c0 8.871094 7.121094 16 16 16zm308 128c0-13.28125-32.238281-24-72-24s-72 10.71875-72 24 32.238281 24 72 24 72-10.71875 72-24zm0 0" fill="#ed5564"/><path d="m252 312.015625c39.761719 0 72 10.71875 72 24s-32.238281 24-72 24-72-10.71875-72-24 32.238281-24 72-24zm0 0" fill="#ffce54"/><path d="m480 196.015625h-456.007812c-2.207032 0-4-1.792969-4-4s1.792968-4 4-4h456.007812c2.207031 0 4 1.792969 4 4s-1.792969 4-4 4zm0 0" fill="#d3374e"/><path d="m480 236.015625h-8.007812c-2.207032 0-4-1.792969-4-4s1.792968-4 4-4h8.007812c2.207031 0 4 1.792969 4 4s-1.792969 4-4 4zm-24.007812 0h-16c-2.207032 0-4-1.792969-4-4s1.792968-4 4-4h16c2.207031 0 4 1.792969 4 4s-1.792969 4-4 4zm-32 0h-16c-2.207032 0-4-1.792969-4-4s1.792968-4 4-4h16c2.207031 0 4 1.792969 4 4s-1.792969 4-4 4zm-32 0h-16c-2.207032 0-4-1.792969-4-4s1.792968-4 4-4h16c2.207031 0 4 1.792969 4 4s-1.792969 4-4 4zm-32 0h-16c-2.207032 0-4-1.792969-4-4s1.792968-4 4-4h16c2.207031 0 4 1.792969 4 4s-1.792969 4-4 4zm-32 0h-16c-2.207032 0-4-1.792969-4-4s1.792968-4 4-4h16c2.207031 0 4 1.792969 4 4s-1.792969 4-4 4zm-32 0h-16c-2.207032 0-4-1.792969-4-4s1.792968-4 4-4h16c2.207031 0 4 1.792969 4 4s-1.792969 4-4 4zm-32 0h-16c-2.207032 0-4-1.792969-4-4s1.792968-4 4-4h16c2.207031 0 4 1.792969 4 4s-1.792969 4-4 4zm-32 0h-16c-2.207032 0-4-1.792969-4-4s1.792968-4 4-4h16c2.207031 0 4 1.792969 4 4s-1.792969 4-4 4zm-32 0h-16c-2.207032 0-4-1.792969-4-4s1.792968-4 4-4h16c2.207031 0 4 1.792969 4 4s-1.792969 4-4 4zm-32 0h-16c-2.207032 0-4-1.792969-4-4s1.792968-4 4-4h16c2.207031 0 4 1.792969 4 4s-1.792969 4-4 4zm-32 0h-16c-2.207032 0-4-1.792969-4-4s1.792968-4 4-4h16c2.207031 0 4 1.792969 4 4s-1.792969 4-4 4zm-32 0h-16c-2.207032 0-4-1.792969-4-4s1.792968-4 4-4h16c2.207031 0 4 1.792969 4 4s-1.792969 4-4 4zm-32 0h-16c-2.207032 0-4-1.792969-4-4s1.792968-4 4-4h16c2.207031 0 4 1.792969 4 4s-1.792969 4-4 4zm-32 0h-16c-2.207032 0-4-1.792969-4-4s1.792968-4 4-4h16c2.207031 0 4 1.792969 4 4s-1.792969 4-4 4zm0 0" fill="#da4453"/><path d="m480 444.015625h-8.007812c-2.207032 0-4-1.792969-4-4s1.792968-4 4-4h8.007812c2.207031 0 4 1.792969 4 4s-1.792969 4-4 4zm-24.007812 0h-16c-2.207032 0-4-1.792969-4-4s1.792968-4 4-4h16c2.207031 0 4 1.792969 4 4s-1.792969 4-4 4zm-32 0h-16c-2.207032 0-4-1.792969-4-4s1.792968-4 4-4h16c2.207031 0 4 1.792969 4 4s-1.792969 4-4 4zm-32 0h-16c-2.207032 0-4-1.792969-4-4s1.792968-4 4-4h16c2.207031 0 4 1.792969 4 4s-1.792969 4-4 4zm-32 0h-16c-2.207032 0-4-1.792969-4-4s1.792968-4 4-4h16c2.207031 0 4 1.792969 4 4s-1.792969 4-4 4zm-32 0h-16c-2.207032 0-4-1.792969-4-4s1.792968-4 4-4h16c2.207031 0 4 1.792969 4 4s-1.792969 4-4 4zm-32 0h-16c-2.207032 0-4-1.792969-4-4s1.792968-4 4-4h16c2.207031 0 4 1.792969 4 4s-1.792969 4-4 4zm-32 0h-16c-2.207032 0-4-1.792969-4-4s1.792968-4 4-4h16c2.207031 0 4 1.792969 4 4s-1.792969 4-4 4zm-32 0h-16c-2.207032 0-4-1.792969-4-4s1.792968-4 4-4h16c2.207031 0 4 1.792969 4 4s-1.792969 4-4 4zm-32 0h-16c-2.207032 0-4-1.792969-4-4s1.792968-4 4-4h16c2.207031 0 4 1.792969 4 4s-1.792969 4-4 4zm-32 0h-16c-2.207032 0-4-1.792969-4-4s1.792968-4 4-4h16c2.207031 0 4 1.792969 4 4s-1.792969 4-4 4zm-32 0h-16c-2.207032 0-4-1.792969-4-4s1.792968-4 4-4h16c2.207031 0 4 1.792969 4 4s-1.792969 4-4 4zm-32 0h-16c-2.207032 0-4-1.792969-4-4s1.792968-4 4-4h16c2.207031 0 4 1.792969 4 4s-1.792969 4-4 4zm-32 0h-16c-2.207032 0-4-1.792969-4-4s1.792968-4 4-4h16c2.207031 0 4 1.792969 4 4s-1.792969 4-4 4zm-32 0h-16c-2.207032 0-4-1.792969-4-4s1.792968-4 4-4h16c2.207031 0 4 1.792969 4 4s-1.792969 4-4 4zm0 0" fill="#da4453"/><path d="m284 340.015625h-64c-2.207031 0-4-1.792969-4-4s1.792969-4 4-4h64c2.207031 0 4 1.792969 4 4s-1.792969 4-4 4zm0 0" fill="#f6bb42"/><path d="m439.96875 168.015625v16h-375.9375v-184.015625h375.9375zm0 0" fill="#e6e9ed"/><path d="m455.984375 168.015625v16h-407.96875v-168.007813h407.96875zm0 0" fill="#ccd1d9"/><path d="m472 179.632812v16.382813h-440v-164h440zm0 0" fill="#e6e9ed"/><path d="m128 104.015625c4.398438 0 8-3.589844 8-8 0-4.390625-3.601562-8-8-8s-8 3.609375-8 8c0 4.410156 3.601562 8 8 8zm64 12c0 28.71875-23.28125 52-52 52s-52-23.28125-52-52 23.28125-52 52-52 52 23.28125 52 52zm0 0" fill="#ffce54"/><path d="m136 96.015625c0 4.410156-3.601562 8-8 8s-8-3.589844-8-8c0-4.390625 3.601562-8 8-8s8 3.609375 8 8zm0 0" fill="#ed5564"/><path d="m140 168.015625c18.457031 0 34.625-9.640625 43.847656-24.136719l-31.855468-31.863281-44.527344 44.527344c8.910156 7.167969 20.214844 11.472656 32.535156 11.472656zm0 0" fill="#656d78"/><path d="m115.992188 120.015625-21.367188 21.367187c3.277344 5.847657 7.648438 10.992188 12.832031 15.167969l22.527344-22.527343zm0 0" fill="#434a54"/><g fill="#ccd1d9"><path d="m416 100.015625h-176.007812c-2.207032 0-4-1.785156-4-4 0-2.199219 1.792968-4 4-4h176.007812c2.207031 0 4 1.800781 4 4 0 2.214844-1.792969 4-4 4zm0 0"/><path d="m416 124.015625h-176.007812c-2.207032 0-4-1.785156-4-4 0-2.199219 1.792968-4 4-4h176.007812c2.207031 0 4 1.800781 4 4 0 2.214844-1.792969 4-4 4zm0 0"/><path d="m328 148.015625h-88.007812c-2.207032 0-4-1.785156-4-4 0-2.199219 1.792968-4 4-4h88.007812c2.207031 0 4 1.800781 4 4 0 2.214844-1.792969 4-4 4zm0 0"/></g></svg>